<mxfile host="app.diagrams.net" agent="Mozilla/5.0 (Windows NT 10.0; Win64; x64) AppleWebKit/537.36 (KHTML, like Gecko) Chrome/128.0.0.0 Safari/537.36" version="24.7.12">
  <diagram name="페이지-1" id="6uBb9s3DYbjUUU3woUn5">
    <mxGraphModel dx="1434" dy="746" grid="1" gridSize="10" guides="1" tooltips="1" connect="1" arrows="1" fold="1" page="1" pageScale="1" pageWidth="827" pageHeight="1169" math="0" shadow="0">
      <root>
        <mxCell id="0" />
        <mxCell id="1" parent="0" />
        <mxCell id="EKi2wuXnir-YxzMT1W9s-53" value="" style="rounded=0;whiteSpace=wrap;html=1;" vertex="1" parent="1">
          <mxGeometry x="430" y="320" width="180" height="270" as="geometry" />
        </mxCell>
        <mxCell id="EKi2wuXnir-YxzMT1W9s-1" value="직원" style="shape=umlActor;verticalLabelPosition=bottom;verticalAlign=top;html=1;outlineConnect=0;" vertex="1" parent="1">
          <mxGeometry x="360" y="80" width="30" height="60" as="geometry" />
        </mxCell>
        <mxCell id="EKi2wuXnir-YxzMT1W9s-2" value="신용카드 서비스" style="shape=umlActor;verticalLabelPosition=bottom;verticalAlign=top;html=1;outlineConnect=0;" vertex="1" parent="1">
          <mxGeometry x="80" y="200" width="30" height="60" as="geometry" />
        </mxCell>
        <mxCell id="EKi2wuXnir-YxzMT1W9s-3" value="키오스크" style="shape=umlActor;verticalLabelPosition=bottom;verticalAlign=top;html=1;outlineConnect=0;" vertex="1" parent="1">
          <mxGeometry x="80" y="80" width="30" height="60" as="geometry" />
        </mxCell>
        <mxCell id="EKi2wuXnir-YxzMT1W9s-4" value="관리자" style="shape=umlActor;verticalLabelPosition=bottom;verticalAlign=top;html=1;outlineConnect=0;" vertex="1" parent="1">
          <mxGeometry x="360" y="200" width="30" height="60" as="geometry" />
        </mxCell>
        <mxCell id="EKi2wuXnir-YxzMT1W9s-6" value="티켓 구입" style="ellipse;whiteSpace=wrap;html=1;" vertex="1" parent="1">
          <mxGeometry x="160" y="100" width="70" height="30" as="geometry" />
        </mxCell>
        <mxCell id="EKi2wuXnir-YxzMT1W9s-7" value="결제" style="ellipse;whiteSpace=wrap;html=1;" vertex="1" parent="1">
          <mxGeometry x="160" y="215" width="70" height="30" as="geometry" />
        </mxCell>
        <mxCell id="EKi2wuXnir-YxzMT1W9s-8" value="티켓 구입" style="ellipse;whiteSpace=wrap;html=1;" vertex="1" parent="1">
          <mxGeometry x="470" y="70" width="70" height="30" as="geometry" />
        </mxCell>
        <mxCell id="EKi2wuXnir-YxzMT1W9s-9" value="정기권 구입" style="ellipse;whiteSpace=wrap;html=1;" vertex="1" parent="1">
          <mxGeometry x="470" y="100" width="70" height="30" as="geometry" />
        </mxCell>
        <mxCell id="EKi2wuXnir-YxzMT1W9s-10" value="매출 조회" style="ellipse;whiteSpace=wrap;html=1;" vertex="1" parent="1">
          <mxGeometry x="470" y="215" width="70" height="30" as="geometry" />
        </mxCell>
        <mxCell id="EKi2wuXnir-YxzMT1W9s-11" value="" style="endArrow=none;html=1;rounded=0;entryX=0;entryY=0.5;entryDx=0;entryDy=0;exitX=0.5;exitY=0.5;exitDx=0;exitDy=0;exitPerimeter=0;" edge="1" parent="1" source="EKi2wuXnir-YxzMT1W9s-3" target="EKi2wuXnir-YxzMT1W9s-6">
          <mxGeometry width="50" height="50" relative="1" as="geometry">
            <mxPoint x="390" y="410" as="sourcePoint" />
            <mxPoint x="440" y="360" as="targetPoint" />
          </mxGeometry>
        </mxCell>
        <mxCell id="EKi2wuXnir-YxzMT1W9s-12" value="" style="endArrow=none;html=1;rounded=0;entryX=0;entryY=0.5;entryDx=0;entryDy=0;exitX=0.5;exitY=0.5;exitDx=0;exitDy=0;exitPerimeter=0;" edge="1" parent="1" source="EKi2wuXnir-YxzMT1W9s-1" target="EKi2wuXnir-YxzMT1W9s-8">
          <mxGeometry width="50" height="50" relative="1" as="geometry">
            <mxPoint x="390" y="380" as="sourcePoint" />
            <mxPoint x="440" y="330" as="targetPoint" />
          </mxGeometry>
        </mxCell>
        <mxCell id="EKi2wuXnir-YxzMT1W9s-13" value="" style="endArrow=none;html=1;rounded=0;entryX=0;entryY=0.5;entryDx=0;entryDy=0;exitX=0.5;exitY=0.5;exitDx=0;exitDy=0;exitPerimeter=0;" edge="1" parent="1" source="EKi2wuXnir-YxzMT1W9s-2" target="EKi2wuXnir-YxzMT1W9s-7">
          <mxGeometry width="50" height="50" relative="1" as="geometry">
            <mxPoint x="120" y="350" as="sourcePoint" />
            <mxPoint x="170" y="300" as="targetPoint" />
          </mxGeometry>
        </mxCell>
        <mxCell id="EKi2wuXnir-YxzMT1W9s-14" value="" style="endArrow=none;html=1;rounded=0;entryX=0;entryY=0.5;entryDx=0;entryDy=0;exitX=0.5;exitY=0.5;exitDx=0;exitDy=0;exitPerimeter=0;" edge="1" parent="1" source="EKi2wuXnir-YxzMT1W9s-1" target="EKi2wuXnir-YxzMT1W9s-9">
          <mxGeometry width="50" height="50" relative="1" as="geometry">
            <mxPoint x="400" y="420" as="sourcePoint" />
            <mxPoint x="450" y="370" as="targetPoint" />
          </mxGeometry>
        </mxCell>
        <mxCell id="EKi2wuXnir-YxzMT1W9s-15" value="" style="endArrow=none;html=1;rounded=0;entryX=0;entryY=0.5;entryDx=0;entryDy=0;exitX=0.5;exitY=0.5;exitDx=0;exitDy=0;exitPerimeter=0;" edge="1" parent="1" source="EKi2wuXnir-YxzMT1W9s-4" target="EKi2wuXnir-YxzMT1W9s-10">
          <mxGeometry width="50" height="50" relative="1" as="geometry">
            <mxPoint x="410" y="430" as="sourcePoint" />
            <mxPoint x="460" y="380" as="targetPoint" />
          </mxGeometry>
        </mxCell>
        <mxCell id="EKi2wuXnir-YxzMT1W9s-16" value="티켓 구입" style="ellipse;whiteSpace=wrap;html=1;" vertex="1" parent="1">
          <mxGeometry x="60" y="390" width="70" height="30" as="geometry" />
        </mxCell>
        <mxCell id="EKi2wuXnir-YxzMT1W9s-17" value="정기권 구입" style="ellipse;whiteSpace=wrap;html=1;" vertex="1" parent="1">
          <mxGeometry x="60" y="440" width="70" height="30" as="geometry" />
        </mxCell>
        <mxCell id="EKi2wuXnir-YxzMT1W9s-18" value="결제" style="ellipse;whiteSpace=wrap;html=1;" vertex="1" parent="1">
          <mxGeometry x="230" y="410" width="70" height="30" as="geometry" />
        </mxCell>
        <mxCell id="EKi2wuXnir-YxzMT1W9s-35" value="키오스크" style="shape=umlActor;verticalLabelPosition=bottom;verticalAlign=top;html=1;outlineConnect=0;" vertex="1" parent="1">
          <mxGeometry x="360" y="330" width="30" height="60" as="geometry" />
        </mxCell>
        <mxCell id="EKi2wuXnir-YxzMT1W9s-36" value="티켓 구입" style="ellipse;whiteSpace=wrap;html=1;" vertex="1" parent="1">
          <mxGeometry x="440" y="350" width="70" height="30" as="geometry" />
        </mxCell>
        <mxCell id="EKi2wuXnir-YxzMT1W9s-37" value="" style="endArrow=none;html=1;rounded=0;entryX=0;entryY=0.5;entryDx=0;entryDy=0;exitX=0.5;exitY=0.5;exitDx=0;exitDy=0;exitPerimeter=0;" edge="1" parent="1" source="EKi2wuXnir-YxzMT1W9s-35" target="EKi2wuXnir-YxzMT1W9s-36">
          <mxGeometry width="50" height="50" relative="1" as="geometry">
            <mxPoint x="670" y="660" as="sourcePoint" />
            <mxPoint x="720" y="610" as="targetPoint" />
          </mxGeometry>
        </mxCell>
        <mxCell id="EKi2wuXnir-YxzMT1W9s-38" value="직원" style="shape=umlActor;verticalLabelPosition=bottom;verticalAlign=top;html=1;outlineConnect=0;" vertex="1" parent="1">
          <mxGeometry x="640" y="300" width="30" height="60" as="geometry" />
        </mxCell>
        <mxCell id="EKi2wuXnir-YxzMT1W9s-39" value="신용카드 서비스" style="shape=umlActor;verticalLabelPosition=bottom;verticalAlign=top;html=1;outlineConnect=0;" vertex="1" parent="1">
          <mxGeometry x="640" y="420" width="30" height="60" as="geometry" />
        </mxCell>
        <mxCell id="EKi2wuXnir-YxzMT1W9s-40" value="관리자" style="shape=umlActor;verticalLabelPosition=bottom;verticalAlign=top;html=1;outlineConnect=0;" vertex="1" parent="1">
          <mxGeometry x="640" y="540" width="30" height="60" as="geometry" />
        </mxCell>
        <mxCell id="EKi2wuXnir-YxzMT1W9s-41" value="정기권 구입" style="ellipse;whiteSpace=wrap;html=1;" vertex="1" parent="1">
          <mxGeometry x="530" y="400" width="70" height="30" as="geometry" />
        </mxCell>
        <mxCell id="EKi2wuXnir-YxzMT1W9s-42" value="" style="endArrow=none;html=1;rounded=0;entryX=0.5;entryY=0.5;entryDx=0;entryDy=0;entryPerimeter=0;exitX=1;exitY=0.5;exitDx=0;exitDy=0;" edge="1" parent="1" source="EKi2wuXnir-YxzMT1W9s-41" target="EKi2wuXnir-YxzMT1W9s-38">
          <mxGeometry width="50" height="50" relative="1" as="geometry">
            <mxPoint x="390" y="410" as="sourcePoint" />
            <mxPoint x="440" y="360" as="targetPoint" />
          </mxGeometry>
        </mxCell>
        <mxCell id="EKi2wuXnir-YxzMT1W9s-43" value="" style="endArrow=none;html=1;rounded=0;entryX=0.5;entryY=0.5;entryDx=0;entryDy=0;entryPerimeter=0;exitX=1;exitY=0.5;exitDx=0;exitDy=0;" edge="1" parent="1" source="EKi2wuXnir-YxzMT1W9s-36" target="EKi2wuXnir-YxzMT1W9s-38">
          <mxGeometry width="50" height="50" relative="1" as="geometry">
            <mxPoint x="390" y="410" as="sourcePoint" />
            <mxPoint x="440" y="360" as="targetPoint" />
          </mxGeometry>
        </mxCell>
        <mxCell id="EKi2wuXnir-YxzMT1W9s-44" value="결제" style="ellipse;whiteSpace=wrap;html=1;" vertex="1" parent="1">
          <mxGeometry x="440" y="460" width="70" height="30" as="geometry" />
        </mxCell>
        <mxCell id="EKi2wuXnir-YxzMT1W9s-45" value="매출 조회" style="ellipse;whiteSpace=wrap;html=1;" vertex="1" parent="1">
          <mxGeometry x="530" y="530" width="70" height="30" as="geometry" />
        </mxCell>
        <mxCell id="EKi2wuXnir-YxzMT1W9s-46" value="" style="endArrow=none;html=1;rounded=0;entryX=0.5;entryY=0.5;entryDx=0;entryDy=0;entryPerimeter=0;exitX=1;exitY=0.5;exitDx=0;exitDy=0;" edge="1" parent="1" source="EKi2wuXnir-YxzMT1W9s-45" target="EKi2wuXnir-YxzMT1W9s-40">
          <mxGeometry width="50" height="50" relative="1" as="geometry">
            <mxPoint x="389" y="570" as="sourcePoint" />
            <mxPoint x="439" y="520" as="targetPoint" />
          </mxGeometry>
        </mxCell>
        <mxCell id="EKi2wuXnir-YxzMT1W9s-47" value="" style="endArrow=none;html=1;rounded=0;entryX=0.5;entryY=0.5;entryDx=0;entryDy=0;entryPerimeter=0;exitX=1;exitY=0.5;exitDx=0;exitDy=0;" edge="1" parent="1" source="EKi2wuXnir-YxzMT1W9s-44" target="EKi2wuXnir-YxzMT1W9s-39">
          <mxGeometry width="50" height="50" relative="1" as="geometry">
            <mxPoint x="380" y="580" as="sourcePoint" />
            <mxPoint x="430" y="530" as="targetPoint" />
          </mxGeometry>
        </mxCell>
        <mxCell id="EKi2wuXnir-YxzMT1W9s-54" value="" style="endArrow=classic;html=1;rounded=1;entryX=0.5;entryY=0;entryDx=0;entryDy=0;exitX=0.5;exitY=1;exitDx=0;exitDy=0;curved=0;dashed=1;" edge="1" parent="1" source="EKi2wuXnir-YxzMT1W9s-36" target="EKi2wuXnir-YxzMT1W9s-44">
          <mxGeometry width="50" height="50" relative="1" as="geometry">
            <mxPoint x="390" y="410" as="sourcePoint" />
            <mxPoint x="440" y="360" as="targetPoint" />
          </mxGeometry>
        </mxCell>
        <mxCell id="EKi2wuXnir-YxzMT1W9s-55" value="&amp;lt;&amp;lt;include&amp;gt;&amp;gt;" style="edgeLabel;html=1;align=center;verticalAlign=middle;resizable=0;points=[];" vertex="1" connectable="0" parent="EKi2wuXnir-YxzMT1W9s-54">
          <mxGeometry x="-0.275" y="-2" relative="1" as="geometry">
            <mxPoint as="offset" />
          </mxGeometry>
        </mxCell>
        <mxCell id="EKi2wuXnir-YxzMT1W9s-56" value="" style="endArrow=classic;html=1;rounded=0;entryX=0.5;entryY=0;entryDx=0;entryDy=0;exitX=0;exitY=0.5;exitDx=0;exitDy=0;dashed=1;" edge="1" parent="1" source="EKi2wuXnir-YxzMT1W9s-41" target="EKi2wuXnir-YxzMT1W9s-44">
          <mxGeometry width="50" height="50" relative="1" as="geometry">
            <mxPoint x="370" y="510" as="sourcePoint" />
            <mxPoint x="410" y="510" as="targetPoint" />
          </mxGeometry>
        </mxCell>
        <mxCell id="EKi2wuXnir-YxzMT1W9s-57" value="&amp;lt;&amp;lt;include&amp;gt;&amp;gt;" style="edgeLabel;html=1;align=center;verticalAlign=middle;resizable=0;points=[];" vertex="1" connectable="0" parent="EKi2wuXnir-YxzMT1W9s-56">
          <mxGeometry x="-0.3188" relative="1" as="geometry">
            <mxPoint as="offset" />
          </mxGeometry>
        </mxCell>
        <mxCell id="EKi2wuXnir-YxzMT1W9s-58" value="" style="endArrow=classic;html=1;rounded=0;entryX=0;entryY=0.5;entryDx=0;entryDy=0;exitX=1;exitY=0.5;exitDx=0;exitDy=0;dashed=1;" edge="1" parent="1" source="EKi2wuXnir-YxzMT1W9s-16" target="EKi2wuXnir-YxzMT1W9s-18">
          <mxGeometry width="50" height="50" relative="1" as="geometry">
            <mxPoint x="390" y="410" as="sourcePoint" />
            <mxPoint x="440" y="360" as="targetPoint" />
          </mxGeometry>
        </mxCell>
        <mxCell id="EKi2wuXnir-YxzMT1W9s-60" value="&amp;lt;&amp;lt;inclued&amp;gt;&amp;gt;" style="edgeLabel;html=1;align=center;verticalAlign=middle;resizable=0;points=[];" vertex="1" connectable="0" parent="EKi2wuXnir-YxzMT1W9s-58">
          <mxGeometry x="-0.2731" y="-2" relative="1" as="geometry">
            <mxPoint as="offset" />
          </mxGeometry>
        </mxCell>
        <mxCell id="EKi2wuXnir-YxzMT1W9s-61" value="" style="endArrow=classic;html=1;rounded=0;entryX=0;entryY=0.5;entryDx=0;entryDy=0;exitX=1;exitY=0.5;exitDx=0;exitDy=0;dashed=1;" edge="1" parent="1" target="EKi2wuXnir-YxzMT1W9s-18">
          <mxGeometry width="50" height="50" relative="1" as="geometry">
            <mxPoint x="130" y="460" as="sourcePoint" />
            <mxPoint x="230" y="480" as="targetPoint" />
          </mxGeometry>
        </mxCell>
        <mxCell id="EKi2wuXnir-YxzMT1W9s-62" value="&amp;lt;&amp;lt;inclued&amp;gt;&amp;gt;" style="edgeLabel;html=1;align=center;verticalAlign=middle;resizable=0;points=[];" vertex="1" connectable="0" parent="EKi2wuXnir-YxzMT1W9s-61">
          <mxGeometry x="-0.2731" y="-2" relative="1" as="geometry">
            <mxPoint as="offset" />
          </mxGeometry>
        </mxCell>
      </root>
    </mxGraphModel>
  </diagram>
</mxfile>
